<?xml version="1.0" standalone="no"?>
<!DOCTYPE svg PUBLIC "-//W3C//DTD SVG 20010904//EN"
 "http://www.w3.org/TR/2001/REC-SVG-20010904/DTD/svg10.dtd">
<svg version="1.0" xmlns="http://www.w3.org/2000/svg"
 width="246.000000pt" height="246.000000pt" viewBox="0 0 246.000000 246.000000"
 preserveAspectRatio="xMidYMid meet">
<metadata>
Created by potrace 1.14, written by Peter Selinger 2001-2017
</metadata>
<g transform="translate(0.000000,246.000000) scale(0.100000,-0.100000)"
fill="#000000" stroke="none">
<path d="M1200 1751 l-41 -38 -33 33 c-43 43 -67 43 -111 -1 l-35 -36 4 -227
c6 -288 25 -770 31 -799 4 -17 12 -23 34 -23 35 0 47 14 55 65 14 93 46 581
46 714 0 79 2 142 4 140 2 -2 6 -69 9 -149 14 -355 28 -658 33 -697 3 -23 11
-46 18 -53 15 -11 63 -24 52 -13 -3 4 1 14 9 23 24 26 55 486 55 814 0 88 3
157 6 154 3 -3 7 -76 9 -162 4 -157 22 -613 29 -736 3 -52 8 -68 27 -83 22
-18 23 -18 45 5 19 19 25 40 33 118 13 116 31 479 37 731 l5 186 -25 30 c-14
17 -35 33 -46 36 -25 6 -95 -43 -106 -75 -8 -22 -8 -22 -13 7 -6 26 -58 75
-82 75 -5 0 -26 -17 -49 -39z m-43 -143 c-3 -7 -5 -2 -5 12 0 14 2 19 5 13 2
-7 2 -19 0 -25z"/>
<path d="M656 1761 c-16 -11 -33 -27 -38 -35 -18 -32 -21 -158 -9 -435 24
-555 26 -581 47 -601 18 -18 21 -18 50 -4 30 14 32 20 43 92 6 42 15 212 21
377 6 165 13 355 15 423 6 136 -5 175 -51 192 -35 14 -45 13 -78 -9z"/>
<path d="M1764 1760 c-52 -33 -56 -55 -49 -276 3 -109 10 -242 15 -294 5 -52
10 -153 10 -225 0 -141 14 -261 31 -282 16 -18 53 -16 72 5 19 21 33 181 44
497 l7 230 8 -140 c4 -77 11 -236 17 -353 8 -182 12 -217 27 -233 23 -25 52
-21 75 11 16 22 20 69 34 345 9 176 15 405 13 508 -3 187 -3 188 -28 207 -46
36 -110 15 -135 -44 l-13 -29 -7 31 c-13 59 -66 77 -121 42z m133 -282 c-2
-35 -3 -7 -3 62 0 69 1 97 3 63 2 -35 2 -91 0 -125z"/>
<path d="M2139 1764 c-54 -28 -54 -31 -52 -253 2 -211 19 -636 29 -749 7 -72
28 -104 64 -95 12 3 28 20 35 37 22 53 57 915 41 1002 -5 25 -16 41 -39 54
-37 23 -42 23 -78 4z"/>
<path d="M252 1757 c-39 -22 -51 -49 -52 -128 -1 -41 -1 -76 0 -79 0 -3 3 -50
6 -105 2 -55 11 -179 19 -275 8 -96 15 -213 15 -261 0 -75 11 -170 26 -221 7
-22 38 -32 63 -19 43 24 50 87 57 561 6 415 6 448 -11 485 -10 22 -18 42 -17
45 1 11 -85 9 -106 -3z"/>
<path d="M446 1747 c-39 -32 -46 -83 -40 -297 7 -282 31 -734 39 -753 10 -23
51 -33 71 -16 30 25 36 64 49 334 23 451 27 682 14 708 -28 52 -85 62 -133 24z"/>
</g>
</svg>
