<svg version="1.1" viewBox="0.0 0.0 516.4829396325459 514.6745406824147" fill="none" stroke="none" stroke-linecap="square" stroke-miterlimit="10" xmlns:xlink="http://www.w3.org/1999/xlink" xmlns="http://www.w3.org/2000/svg"><clipPath id="p.0"><path d="m0 0l516.4829 0l0 514.67456l-516.4829 0l0 -514.67456z" clip-rule="nonzero"/></clipPath><g clip-path="url(#p.0)"><path fill="#000000" fill-opacity="0.0" d="m0 0l516.4829 0l0 514.67456l-516.4829 0z" fill-rule="evenodd"/><path fill="#ffffff" d="m15.249344 257.33728l0 0c0 -134.20087 108.79128 -242.99214 242.99211 -242.99214l0 0c64.445526 0 126.251526 25.600882 171.82138 71.170746c45.569885 45.569862 71.170746 107.37586 71.170746 171.82138l0 0c0 134.20084 -108.79126 242.99213 -242.99213 242.99213l0 0c-134.20084 0 -242.99211 -108.79129 -242.99211 -242.99213z" fill-rule="evenodd"/><path stroke="#000000" stroke-width="24.0" stroke-linejoin="round" stroke-linecap="butt" d="m15.249344 257.33728l0 0c0 -134.20087 108.79128 -242.99214 242.99211 -242.99214l0 0c64.445526 0 126.251526 25.600882 171.82138 71.170746c45.569885 45.569862 71.170746 107.37586 71.170746 171.82138l0 0c0 134.20084 -108.79126 242.99213 -242.99213 242.99213l0 0c-134.20084 0 -242.99211 -108.79129 -242.99211 -242.99213z" fill-rule="evenodd"/><path fill="#000000" d="m165.04144 401.33728l0 -324.0l82.0 0q42.40625 0 66.0 10.609375q23.59375 10.59375 33.1875 33.203125q9.609375 22.593742 9.609375 58.593742l0 117.593765q0 36.40625 -9.609375 59.40625q-9.59375 23.0 -33.0 33.796875q-23.390625 10.796875 -65.390625 10.796875l-82.796875 0zm71.59375 -49.59375l11.203125 0q16.40625 0 23.59375 -4.796875q7.203125 -4.8125 9.0 -14.40625q1.8125 -9.609375 1.8125 -24.0l0 -141.20314q0 -14.40625 -2.203125 -23.203125q-2.203125 -8.796875 -9.40625 -12.796875q-7.1875 -3.9999924 -23.1875 -3.9999924l-10.8125 0l0 224.40625z" fill-rule="nonzero"/></g></svg>